<svg width="145" height="27" viewBox="0 0 145 27" fill="none" xmlns="http://www.w3.org/2000/svg">
<path d="M12.8101 26.932C10.2661 26.932 8.08215 26.392 6.25815 25.312C4.43415 24.208 3.01815 22.684 2.01015 20.74C1.02615 18.772 0.534148 16.504 0.534148 13.936C0.534148 11.368 1.02615 9.1 2.01015 7.132C3.01815 5.164 4.43415 3.628 6.25815 2.524C8.08215 1.42 10.2661 0.868 12.8101 0.868C15.8581 0.868 18.3541 1.624 20.2981 3.136C22.2661 4.648 23.4901 6.784 23.9701 9.544H18.6421C18.3301 8.2 17.6821 7.156 16.6981 6.412C15.7141 5.644 14.4061 5.26 12.7741 5.26C11.2381 5.26 9.93015 5.62 8.85015 6.34C7.77015 7.036 6.94215 8.032 6.36615 9.328C5.79015 10.624 5.50215 12.16 5.50215 13.936C5.50215 15.712 5.79015 17.248 6.36615 18.544C6.94215 19.816 7.77015 20.8 8.85015 21.496C9.93015 22.192 11.2381 22.54 12.7741 22.54C14.4061 22.54 15.7141 22.192 16.6981 21.496C17.6821 20.8 18.3301 19.816 18.6421 18.544H23.9701C23.4901 21.16 22.2661 23.212 20.2981 24.7C18.3541 26.188 15.8581 26.932 12.8101 26.932ZM32.8481 26.932C31.4081 26.932 30.2201 26.692 29.2841 26.212C28.3481 25.732 27.6521 25.084 27.1961 24.268C26.7641 23.452 26.5481 22.552 26.5481 21.568C26.5481 20.464 26.8241 19.492 27.3761 18.652C27.9521 17.812 28.8161 17.164 29.9681 16.708C31.1201 16.228 32.5721 15.988 34.3241 15.988H38.8241C38.8241 15.1 38.6921 14.368 38.4281 13.792C38.1881 13.216 37.8041 12.796 37.2761 12.532C36.7721 12.244 36.1241 12.1 35.3321 12.1C34.3961 12.1 33.5921 12.304 32.9201 12.712C32.2721 13.12 31.8641 13.768 31.6961 14.656H26.9801C27.1241 13.336 27.5561 12.196 28.2761 11.236C29.0201 10.276 29.9921 9.532 31.1921 9.004C32.4161 8.476 33.7961 8.212 35.3321 8.212C37.0601 8.212 38.5481 8.5 39.7961 9.076C41.0441 9.628 42.0041 10.456 42.6761 11.56C43.3481 12.64 43.6841 13.96 43.6841 15.52V26.5H39.6161L39.1121 23.728H39.0041C38.6681 24.256 38.2841 24.724 37.8521 25.132C37.4201 25.516 36.9521 25.84 36.4481 26.104C35.9441 26.368 35.3801 26.572 34.7561 26.716C34.1561 26.86 33.5201 26.932 32.8481 26.932ZM34.3601 23.188C35.0081 23.188 35.5841 23.08 36.0881 22.864C36.5921 22.624 37.0121 22.312 37.3481 21.928C37.7081 21.544 37.9841 21.1 38.1761 20.596C38.3921 20.068 38.5361 19.528 38.6081 18.976H34.8641C34.1201 18.976 33.5081 19.072 33.0281 19.264C32.5721 19.432 32.2361 19.684 32.0201 20.02C31.8041 20.332 31.6961 20.704 31.6961 21.136C31.6961 21.568 31.8041 21.94 32.0201 22.252C32.2361 22.564 32.5481 22.804 32.9561 22.972C33.3641 23.116 33.8321 23.188 34.3601 23.188ZM46.7722 26.5V8.644H50.9482L51.3442 11.56H51.4522C52.0282 10.528 52.8202 9.712 53.8282 9.112C54.8362 8.512 56.0722 8.212 57.5362 8.212C59.0242 8.212 60.2842 8.536 61.3162 9.184C62.3482 9.808 63.1282 10.732 63.6562 11.956C64.2082 13.18 64.4842 14.692 64.4842 16.492V26.5H59.6602V16.924C59.6602 15.436 59.3602 14.296 58.7602 13.504C58.1602 12.712 57.2002 12.316 55.8802 12.316C55.0642 12.316 54.3322 12.52 53.6842 12.928C53.0362 13.312 52.5322 13.876 52.1722 14.62C51.8122 15.34 51.6322 16.228 51.6322 17.284V26.5H46.7722ZM75.5399 26.932C73.8599 26.932 72.3839 26.536 71.1119 25.744C69.8399 24.928 68.8439 23.812 68.1239 22.396C67.4279 20.98 67.0799 19.372 67.0799 17.572C67.0799 15.772 67.4279 14.164 68.1239 12.748C68.8439 11.332 69.8519 10.228 71.1479 9.436C72.4439 8.62 73.9559 8.212 75.6839 8.212C77.0519 8.212 78.2399 8.476 79.2479 9.004C80.2799 9.532 81.0839 10.192 81.6599 10.984V1.12H86.5199V26.5H82.3799L82.0559 23.512H81.9479C81.5159 24.208 80.9879 24.808 80.3639 25.312C79.7399 25.816 79.0319 26.212 78.2399 26.5C77.4479 26.788 76.5479 26.932 75.5399 26.932ZM76.8719 22.864C77.8559 22.864 78.7079 22.636 79.4279 22.18C80.1719 21.724 80.7479 21.1 81.1559 20.308C81.5639 19.516 81.7679 18.592 81.7679 17.536C81.7679 16.504 81.5639 15.592 81.1559 14.8C80.7479 14.008 80.1719 13.384 79.4279 12.928C78.7079 12.472 77.8559 12.244 76.8719 12.244C75.9119 12.244 75.0599 12.472 74.3159 12.928C73.5959 13.384 73.0319 14.008 72.6239 14.8C72.2159 15.592 72.0119 16.504 72.0119 17.536C72.0119 18.592 72.2159 19.516 72.6239 20.308C73.0319 21.1 73.5959 21.724 74.3159 22.18C75.0599 22.636 75.9119 22.864 76.8719 22.864ZM98.7632 26.932C96.9392 26.932 95.3192 26.548 93.9032 25.78C92.5112 25.012 91.4192 23.932 90.6272 22.54C89.8352 21.148 89.4392 19.552 89.4392 17.752C89.4392 15.88 89.8232 14.236 90.5912 12.82C91.3832 11.38 92.4752 10.252 93.8672 9.436C95.2832 8.62 96.9272 8.212 98.7992 8.212C100.575 8.212 102.135 8.596 103.479 9.364C104.823 10.132 105.879 11.188 106.647 12.532C107.415 13.852 107.799 15.352 107.799 17.032C107.799 17.272 107.799 17.548 107.799 17.86C107.799 18.148 107.775 18.448 107.727 18.76H92.8952V15.772H102.867C102.795 14.644 102.375 13.744 101.607 13.072C100.863 12.4 99.9272 12.064 98.7992 12.064C97.9592 12.064 97.1912 12.256 96.4952 12.64C95.7992 13 95.2472 13.564 94.8392 14.332C94.4312 15.076 94.2272 16.024 94.2272 17.176V18.22C94.2272 19.204 94.4192 20.056 94.8032 20.776C95.1872 21.472 95.7152 22.012 96.3872 22.396C97.0832 22.78 97.8632 22.972 98.7272 22.972C99.6152 22.972 100.359 22.78 100.959 22.396C101.559 21.988 102.015 21.472 102.327 20.848H107.295C106.935 21.976 106.359 23.008 105.567 23.944C104.775 24.856 103.803 25.588 102.651 26.14C101.499 26.668 100.203 26.932 98.7632 26.932ZM118.037 26.5V1.3H122.897V26.5H118.037ZM132.485 26.5V5.224H125.105V1.3H144.689V5.224H137.309V26.5H132.485Z" fill="#171717"/>
</svg>
