<svg width="384" height="426" viewBox="0 0 384 426" fill="none" xmlns="http://www.w3.org/2000/svg">
<g clip-path="url(#clip0_293_15)">
<path d="M187.88 0C240.51 0.25 288.46 7.21 335.21 21.04C361.03 28.68 375.84 47.04 379.43 73.99C383.25 102.69 384.57 131.58 383.04 160.42C379.39 229.48 356.39 291.08 309.9 343.13C278.22 378.59 240.47 405.57 196.77 424.29C193.32 425.77 190.29 425.82 186.83 424.26C95.4002 383.11 33.3302 316.49 8.59017 217.9C-0.0398273 183.53 -1.24983 148.41 0.980173 113.11C1.88017 98.87 2.46017 84.57 5.09017 70.56C10.2002 43.38 26.8102 26.75 53.3502 19.52C79.0902 12.51 105.19 7.33 131.61 3.85C151.53 1.22 171.61 0.25 187.9 0L187.88 0ZM188.64 32.4C173.39 31.76 154.87 33.4 136.46 35.77C110.34 39.13 84.5402 44.37 59.1102 51.3C46.8202 54.65 38.5902 62.27 36.1602 74.88C33.1802 90.37 33.0702 106.2 32.4002 121.89C31.3502 146.61 32.5202 171.24 36.9402 195.71C46.3202 247.72 69.4402 292.54 106.15 330.42C128.9 353.89 155.27 372.42 184.29 387.34C189.53 390.03 193.96 390.27 199.52 387.48C231.3 371.51 259.53 350.99 283.55 324.63C299.33 307.32 312.58 288.33 323.1 267.5C341.97 230.14 350.49 190.21 351.38 148.56C351.85 126.65 350.45 104.81 348.58 82.97C347.15 66.19 339.36 55.24 323.5 51.05C280.43 39.67 236.8 32.05 188.66 32.4H188.64Z" fill="#4DAE50"/>
<path d="M188.64 32.4001C236.77 32.0501 280.41 39.6701 323.48 51.0501C339.34 55.2401 347.13 66.2001 348.56 82.9701C350.42 104.81 351.83 126.65 351.36 148.56C350.47 190.21 341.95 230.14 323.08 267.5C312.56 288.34 299.31 307.33 283.53 324.63C259.5 350.99 231.28 371.51 199.5 387.48C193.95 390.27 189.51 390.03 184.27 387.34C155.25 372.42 128.88 353.89 106.13 330.42C69.4202 292.54 46.3002 247.72 36.9202 195.71C32.5102 171.23 31.3302 146.6 32.3802 121.89C33.0502 106.2 33.1502 90.3701 36.1402 74.8801C38.5702 62.2601 46.8002 54.6501 59.0902 51.3001C84.5202 44.3701 110.32 39.1401 136.44 35.7701C154.85 33.4001 173.38 31.7601 188.62 32.4001H188.64ZM202.4 308.1C209.79 303.4 215.27 296.72 220.96 290.25C250.6 256.49 261.07 217.43 253.15 173.35C247.93 144.28 236.17 118.01 218.69 94.2701C210.73 83.4501 202.37 72.9701 191.72 64.5801C190.56 65.4801 189.29 66.2801 188.25 67.3101C157.09 97.9701 136.42 134.17 129.74 177.81C126.3 200.29 127.16 222.42 134.87 243.99C144.16 269.98 160.5 290.99 181.11 308.94C181.08 318.39 181.11 327.85 180.98 337.3C180.95 339.73 181.44 340.96 184.24 340.85C189.21 340.66 194.19 340.68 199.17 340.85C201.75 340.93 202.65 340.1 202.6 337.47C202.43 327.69 202.45 317.9 202.4 308.12V308.1Z" fill="#5D4037"/>
<path d="M181.12 308.94C160.5 291 144.16 269.98 134.88 243.99C127.17 222.42 126.31 200.29 129.75 177.81C136.42 134.17 157.1 97.9701 188.26 67.3101C189.3 66.2801 190.57 65.4901 191.73 64.5801C191.75 74.5501 191.79 84.5301 191.8 94.5001C191.84 155.84 191.86 217.17 191.89 278.51C188.3 288.65 184.72 298.79 181.13 308.94H181.12Z" fill="#80C683"/>
<path d="M191.76 278.93C191.73 217.59 191.7 156.26 191.67 94.92C191.67 84.95 191.62 74.97 191.6 65C202.25 73.39 210.61 83.88 218.57 94.69C236.04 118.43 247.8 144.7 253.03 173.77C260.95 217.85 250.48 256.9 220.84 290.67C215.15 297.15 209.67 303.82 202.28 308.52C198.34 298.81 196.17 288.47 191.76 278.93Z" fill="#4CAE50"/>
<path d="M191.87 278.51C196.28 288.05 198.45 298.39 202.39 308.1C202.44 317.89 202.42 327.67 202.59 337.46C202.64 340.09 201.74 340.93 199.16 340.84C194.19 340.68 189.2 340.65 184.23 340.84C181.43 340.95 180.94 339.71 180.97 337.29C181.1 327.84 181.07 318.38 181.1 308.93C184.69 298.79 188.27 288.64 191.86 278.5L191.87 278.51Z" fill="#D9EAC5"/>
</g>
<defs>
<clipPath id="clip0_293_15">
<rect width="383.67" height="425.41" fill="white"/>
</clipPath>
</defs>
</svg>
