<svg width="3065" height="3024" viewBox="0 0 3065 3024" fill="none" xmlns="http://www.w3.org/2000/svg">
<path fill-rule="evenodd" clip-rule="evenodd" d="M732.332 501.218C703.213 501.125 674.205 504.821 646.039 512.21V516.058H650.216C670.389 546.509 692.881 575.359 717.492 602.351C734.42 635.988 749.15 669.516 765.969 703.153C768.058 701.065 770.147 698.866 770.147 698.866C785.762 686.47 797.985 670.322 805.673 651.926C813.362 633.531 816.267 613.488 814.117 593.666C804.911 579.471 796.471 564.793 788.834 549.696C776.192 528.7 748.821 518.147 732.002 501.328" fill="#5D87A1"/>
<path fill-rule="evenodd" clip-rule="evenodd" d="M2820.39 2335.68C2681.73 2325.94 2542.59 2346.03 2412.34 2394.6C2380.79 2407.24 2330.45 2407.24 2326.05 2447.14C2342.98 2463.96 2344.96 2491.11 2359.8 2514.53C2388.59 2563.28 2425.59 2606.68 2469.18 2642.81C2513.15 2676.45 2557.12 2709.98 2603.84 2739.44C2685.73 2790.12 2778.4 2819.47 2858.21 2869.92C2904.6 2899.38 2950.77 2937.2 2997.15 2968.86C3020.24 2985.68 3034.86 3012.83 3064.32 3023.82V3017.44C3055.66 2994.08 3044.96 2971.53 3032.33 2950.06C3011.34 2929.17 2990.23 2910.16 2969.12 2889.16C2907.46 2807.63 2833.69 2736 2750.37 2676.78C2682.98 2630.39 2535.68 2566.85 2508.53 2489.9L2504.24 2485.62C2553.55 2478.63 2602.14 2467.3 2649.46 2451.76C2720.91 2432.85 2786.09 2437.14 2859.64 2418.78C2893.38 2410.32 2954.39 2389.32 2954.39 2389.32V2356.34C2916.8 2318.97 2889.87 2268.95 2850.29 2233.67C2742.63 2139.68 2627.89 2054.13 2507.1 1977.76C2442.57 1936.09 2359.36 1909.27 2290.65 1873.76C2265.81 1861.23 2224.7 1855.08 2209.64 1834.19C2175.47 1784.06 2146.87 1730.36 2124.33 1674.03C2064.1 1559.7 2005.72 1432.96 1953.84 1312.04C1923.13 1231 1887.71 1151.83 1847.76 1074.93C1654.98 747.175 1376.73 478.001 1042.76 296.204C958.498 255.416 868.907 226.699 776.631 210.9C724.526 208.702 672.64 204.634 620.645 202.656C587.08 180.667 555.154 156.272 525.118 129.664C406.178 54.3643 100.581 -107.448 13.0789 106.799C-42.9838 242.12 96.4035 375.131 144.222 443.835C184.542 492.278 220.068 544.519 250.301 599.822C264.921 635.218 269.099 672.703 283.279 709.749C313.793 804.847 350.025 898.015 391.777 988.743C414.108 1033.59 439.832 1076.66 468.726 1117.58C485.545 1140.55 514.565 1150.56 520.831 1188.48C497.778 1238.03 481.651 1290.52 472.903 1344.47C436.566 1459.22 423.193 1580.01 433.548 1699.93C443.903 1819.85 477.783 1936.56 533.253 2043.38C566.231 2095.38 645.598 2209.81 751.678 2166.06C845.226 2128.69 824.449 2010.07 851.491 1906.19C857.647 1881.02 853.58 1864.53 866.002 1847.93V1868.16C866.002 1868.16 919.097 1984.79 945.479 2044.04C1017.23 2152.76 1106.36 2248.95 1209.3 2328.75C1250.02 2364.3 1282.83 2408.01 1305.6 2457.04V2494.74H1352.54C1351.56 2477.74 1346.85 2461.16 1338.73 2446.19C1330.62 2431.22 1319.31 2418.22 1305.6 2408.12C1267.11 2368.5 1231.85 2325.86 1200.18 2280.6C1114.13 2158.06 1038.25 2028.68 973.291 1893.77C940.312 1827.82 912.501 1755.48 886.118 1689.64C874.026 1664.24 874.026 1625.88 853.69 1612.69C816.139 1657.12 783.554 1705.52 756.515 1757.02C723.69 1861.13 704.584 1969.07 699.682 2078.12C691.658 2080.32 695.615 2078.12 691.658 2082.3C626.911 2065.26 604.596 1995.23 580.192 1935.87C517.15 1752.8 510.79 1554.96 561.944 1368.21C576.015 1323.69 637.024 1183.42 612.62 1140.88C600.418 1100.32 559.855 1077.12 537.65 1045.14C509.302 1002.1 484.909 956.589 464.769 909.156C416.511 790.875 392.107 658.962 339.562 539.802C310.475 482.492 276.607 427.738 238.319 376.12C195.966 324.558 158.606 269.089 126.743 210.461C116.63 187.046 102.45 148.792 118.609 123.289C119.699 116.204 123.068 109.668 128.205 104.67C133.343 99.6717 139.968 96.4831 147.08 95.5869C173.242 72.2824 248.322 101.963 274.595 114.714C345.207 142.512 412.466 178.17 475.102 221.014C503.463 242.339 570.298 296.313 570.298 296.313H590.085C657.361 310.934 732.99 300.381 796.308 319.398C902.918 354.937 1004.66 403.684 1099.16 464.502C1377.68 642.05 1604.1 890.322 1755.31 1183.97C1780.59 1232.23 1791.26 1276.53 1814.34 1326.88C1858.31 1430.21 1913.28 1535.74 1957.25 1636.21C1996.04 1735.62 2046.2 1830.2 2106.75 1918.07C2138.19 1962.04 2264.49 1985.34 2321.32 2008.43C2370.68 2025.5 2419.11 2045.13 2466.43 2067.24C2537.99 2111.21 2609.33 2161.88 2676.72 2210.14C2710.25 2235.42 2815.45 2287.97 2821.82 2330.07" fill="#00758F"/>
</svg>
