<svg width="3065" height="3065" viewBox="0 0 3065 3065" fill="none" xmlns="http://www.w3.org/2000/svg">
<path d="M2261.72 583.625H2407.66C2427 583.625 2445.54 591.306 2459.21 604.978C2472.89 618.651 2480.57 637.195 2480.57 656.53C2480.57 675.866 2472.89 694.41 2459.21 708.082C2445.54 721.755 2427 729.436 2407.66 729.436H2261.72C2242.39 729.436 2223.84 721.755 2210.17 708.082C2196.5 694.41 2188.82 675.866 2188.82 656.53C2188.82 637.195 2196.5 618.651 2210.17 604.978C2223.84 591.306 2242.39 583.625 2261.72 583.625Z" fill="#56B3B4"/>
<path d="M72.9054 2918.38H802.469C821.805 2918.38 840.348 2926.06 854.021 2939.73C867.693 2953.41 875.374 2971.95 875.374 2991.29C875.374 3000.86 873.488 3010.34 869.825 3019.19C866.161 3028.03 860.791 3036.07 854.021 3042.84C847.251 3049.61 839.214 3054.98 830.369 3058.64C821.523 3062.31 812.043 3064.19 802.469 3064.19H72.9054C53.5918 3064.19 35.0674 3056.53 21.3987 3042.88C7.72996 3029.24 0.0339359 3010.73 0.000111813 2991.41C-0.0166742 2981.83 1.85671 2972.33 5.51303 2963.47C9.16934 2954.61 14.5368 2946.56 21.3084 2939.78C28.08 2933 36.1226 2927.61 44.9763 2923.94C53.8299 2920.27 63.3206 2918.38 72.9054 2918.38Z" fill="#EA5E5E"/>
<path d="M1824.04 1751H2261.85C2281.19 1751 2299.73 1758.68 2313.4 1772.36C2327.07 1786.03 2334.76 1804.57 2334.76 1823.91C2334.76 1843.24 2327.07 1861.79 2313.4 1875.46C2299.73 1889.13 2281.19 1896.81 2261.85 1896.81H1824.04C1804.7 1896.81 1786.16 1889.13 1772.48 1875.46C1758.81 1861.79 1751.13 1843.24 1751.13 1823.91C1751.13 1804.57 1758.81 1786.03 1772.48 1772.36C1786.16 1758.68 1804.7 1751 1824.04 1751Z" fill="#BF85BF"/>
<path d="M948.535 1751H1532.16C1551.5 1751 1570.04 1758.68 1583.71 1772.36C1597.38 1786.03 1605.07 1804.57 1605.07 1823.91C1605.07 1843.24 1597.38 1861.79 1583.71 1875.46C1570.04 1889.13 1551.5 1896.81 1532.16 1896.81H948.535C929.199 1896.81 910.655 1889.13 896.983 1875.46C883.31 1861.79 875.629 1843.24 875.629 1823.91C875.629 1804.57 883.31 1786.03 896.983 1772.36C910.655 1758.68 929.199 1751 948.535 1751Z" fill="#EA5E5E"/>
<path d="M72.9054 1751H656.658C675.994 1751 694.538 1758.68 708.21 1772.36C721.882 1786.03 729.564 1804.57 729.564 1823.91C729.564 1843.24 721.882 1861.79 708.21 1875.46C694.538 1889.13 675.994 1896.81 656.658 1896.81H72.9054C53.5918 1896.81 35.0674 1889.15 21.3987 1875.51C7.72996 1861.86 0.0339359 1843.35 0.000111813 1824.04C-0.0166742 1814.45 1.85671 1804.96 5.51303 1796.1C9.16934 1787.24 14.5368 1779.19 21.3084 1772.4C28.08 1765.62 36.1226 1760.24 44.9763 1756.57C53.8299 1752.89 63.3206 1751 72.9054 1751Z" fill="#56B3B4"/>
<path d="M72.9053 2334.76H802.469C821.804 2334.76 840.348 2342.44 854.021 2356.11C867.693 2369.78 875.374 2388.33 875.374 2407.66C875.374 2427 867.693 2445.54 854.021 2459.21C840.348 2472.89 821.804 2480.57 802.469 2480.57H72.9053C53.5696 2480.57 35.0259 2472.89 21.3535 2459.21C7.68107 2445.54 0 2427 0 2407.66C0 2388.33 7.68107 2369.78 21.3535 2356.11C35.0259 2342.44 53.5696 2334.76 72.9053 2334.76Z" fill="#BF85BF"/>
<path d="M72.9053 1167.38H802.469C821.804 1167.38 840.348 1175.06 854.021 1188.73C867.693 1202.4 875.374 1220.95 875.374 1240.28C875.374 1259.62 867.693 1278.16 854.021 1291.84C840.348 1305.51 821.804 1313.19 802.469 1313.19H72.9053C53.5696 1313.19 35.0259 1305.51 21.3535 1291.84C7.68107 1278.16 0 1259.62 0 1240.28C0 1220.95 7.68107 1202.4 21.3535 1188.73C35.0259 1175.06 53.5696 1167.38 72.9053 1167.38Z" fill="#BF85BF"/>
<path d="M802.596 291.876H2261.72C2281.06 291.876 2299.6 299.557 2313.27 313.229C2326.95 326.902 2334.63 345.446 2334.63 364.781C2334.63 384.117 2326.95 402.661 2313.27 416.333C2299.6 430.005 2281.06 437.687 2261.72 437.687H802.596C783.26 437.687 764.716 430.005 751.044 416.333C737.372 402.661 729.69 384.117 729.69 364.781C729.69 345.446 737.372 326.902 751.044 313.229C764.716 299.557 783.26 291.876 802.596 291.876Z" fill="#F7BA3E"/>
<path d="M72.9054 291.876H510.72C530.056 291.876 548.6 299.557 562.272 313.229C575.944 326.902 583.625 345.446 583.625 364.781C583.642 374.366 581.769 383.86 578.112 392.72C574.456 401.58 569.089 409.632 562.317 416.416C555.546 423.199 547.503 428.581 538.649 432.252C529.796 435.924 520.305 437.814 510.72 437.814H72.9054C63.3206 437.814 53.8299 435.924 44.9763 432.252C36.1226 428.581 28.08 423.199 21.3084 416.416C14.5368 409.632 9.16934 401.58 5.51303 392.72C1.85671 383.86 -0.0166742 374.366 0.000111813 364.781C0.000111813 345.446 7.68119 326.902 21.3536 313.229C35.026 299.557 53.5697 291.876 72.9054 291.876Z" fill="#EA5E5E"/>
<path d="M656.659 2626.5H802.597C821.933 2626.5 840.477 2634.19 854.149 2647.86C867.822 2661.53 875.503 2680.07 875.503 2699.41C875.503 2718.75 867.822 2737.29 854.149 2750.96C840.477 2764.63 821.933 2772.32 802.597 2772.32H656.659C637.324 2772.32 618.78 2764.63 605.107 2750.96C591.435 2737.29 583.754 2718.75 583.754 2699.41C583.754 2680.07 591.435 2661.53 605.107 2647.86C618.78 2634.19 637.324 2626.5 656.659 2626.5Z" fill="#F7BA3E"/>
<path d="M656.659 875.501H802.597C821.933 875.501 840.477 883.182 854.149 896.854C867.822 910.527 875.503 929.071 875.503 948.406C875.503 967.742 867.822 986.286 854.149 999.958C840.477 1013.63 821.933 1021.31 802.597 1021.31H656.659C637.324 1021.31 618.78 1013.63 605.107 999.958C591.435 986.286 583.754 967.742 583.754 948.406C583.754 929.071 591.435 910.527 605.107 896.854C618.78 883.182 637.324 875.501 656.659 875.501Z" fill="#56B3B4"/>
<path d="M72.9054 2626.5H364.782C384.118 2626.5 402.661 2634.19 416.334 2647.86C430.006 2661.53 437.687 2680.07 437.687 2699.41C437.687 2718.75 430.006 2737.29 416.334 2750.96C402.661 2764.63 384.118 2772.32 364.782 2772.32H72.9054C53.5918 2772.32 35.0674 2764.65 21.3987 2751.01C7.72996 2737.36 0.0339359 2718.85 0.000111813 2699.54C-0.0166742 2689.95 1.85671 2680.46 5.51303 2671.6C9.16934 2662.74 14.5368 2654.69 21.3084 2647.9C28.08 2641.12 36.1226 2635.74 44.9763 2632.07C53.8299 2628.4 63.3206 2626.5 72.9054 2626.5Z" fill="#56B3B4"/>
<path d="M72.9054 875.501H364.782C384.118 875.501 402.661 883.182 416.334 896.854C430.006 910.527 437.687 929.071 437.687 948.406C437.704 957.991 435.831 967.485 432.174 976.345C428.518 985.205 423.15 993.257 416.379 1000.04C409.607 1006.82 401.565 1012.21 392.711 1015.88C383.857 1019.55 374.367 1021.44 364.782 1021.44H72.9054C53.5697 1021.44 35.026 1013.76 21.3536 1000.09C7.68119 986.413 0.000111813 967.87 0.000111813 948.534C-0.0166742 938.949 1.85671 929.455 5.51303 920.595C9.16934 911.735 14.5368 903.683 21.3084 896.899C28.08 890.116 36.1226 884.735 44.9763 881.063C53.8299 877.391 63.3206 875.501 72.9054 875.501Z" fill="#F7BA3E"/>
<path opacity="0.5" d="M1969.97 2626.5H2115.91C2135.25 2626.5 2153.79 2634.19 2167.46 2647.86C2181.14 2661.53 2188.82 2680.07 2188.82 2699.41C2188.82 2718.75 2181.14 2737.29 2167.46 2750.96C2153.79 2764.63 2135.25 2772.32 2115.91 2772.32H1969.97C1950.64 2772.32 1932.1 2764.63 1918.42 2750.96C1904.75 2737.29 1897.07 2718.75 1897.07 2699.41C1897.07 2680.07 1904.75 2661.53 1918.42 2647.86C1932.1 2634.19 1950.64 2626.5 1969.97 2626.5Z" fill="#D0D4D8"/>
<path opacity="0.5" d="M1094.35 2626.5H1677.97C1697.31 2626.5 1715.85 2634.19 1729.52 2647.86C1743.19 2661.53 1750.88 2680.07 1750.88 2699.41C1750.88 2718.75 1743.19 2737.29 1729.52 2750.96C1715.85 2764.63 1697.31 2772.32 1677.97 2772.32H1094.35C1075.03 2772.32 1056.51 2764.65 1042.84 2751.01C1029.17 2737.36 1021.47 2718.85 1021.44 2699.54C1021.42 2689.95 1023.3 2680.46 1026.95 2671.6C1030.61 2662.74 1035.98 2654.69 1042.75 2647.9C1049.52 2641.12 1057.56 2635.74 1066.42 2632.07C1075.27 2628.4 1084.76 2626.5 1094.35 2626.5Z" fill="#D0D4D8"/>
<path opacity="0.5" d="M2407.66 2626.5H2991.29C3010.62 2626.5 3029.17 2634.19 3042.84 2647.86C3056.51 2661.53 3064.19 2680.07 3064.19 2699.41C3064.19 2718.75 3056.51 2737.29 3042.84 2750.96C3029.17 2764.63 3010.62 2772.32 2991.29 2772.32H2407.66C2388.33 2772.32 2369.78 2764.63 2356.11 2750.96C2342.44 2737.29 2334.76 2718.75 2334.76 2699.41C2334.76 2680.07 2342.44 2661.53 2356.11 2647.86C2369.78 2634.19 2388.33 2626.5 2407.66 2626.5Z" fill="#D0D4D8"/>
<path d="M1240.28 1459.25H2407.66C2427 1459.25 2445.54 1466.94 2459.21 1480.61C2472.89 1494.28 2480.57 1512.82 2480.57 1532.16C2480.57 1551.5 2472.89 1570.04 2459.21 1583.71C2445.54 1597.38 2427 1605.07 2407.66 1605.07H1240.28C1220.95 1605.07 1202.4 1597.38 1188.73 1583.71C1175.06 1570.04 1167.38 1551.5 1167.38 1532.16C1167.38 1512.82 1175.06 1494.28 1188.73 1480.61C1202.4 1466.94 1220.95 1459.25 1240.28 1459.25Z" fill="#56B3B4"/>
<path d="M510.72 1459.25H948.535C967.871 1459.25 986.414 1466.94 1000.09 1480.61C1013.76 1494.28 1021.44 1512.82 1021.44 1532.16C1021.44 1551.5 1013.76 1570.04 1000.09 1583.71C986.414 1597.38 967.871 1605.07 948.535 1605.07H510.72C491.385 1605.07 472.841 1597.38 459.168 1583.71C445.496 1570.04 437.815 1551.5 437.815 1532.16C437.815 1512.82 445.496 1494.28 459.168 1480.61C472.841 1466.94 491.385 1459.25 510.72 1459.25Z" fill="#F7BA3E"/>
<path d="M72.9053 1459.25H218.844C228.428 1459.24 237.922 1461.11 246.782 1464.77C255.642 1468.42 263.694 1473.79 270.478 1480.56C277.261 1487.33 282.643 1495.38 286.315 1504.23C289.987 1513.08 291.876 1522.58 291.876 1532.16C291.876 1551.5 284.195 1570.04 270.523 1583.71C256.851 1597.38 238.307 1605.07 218.971 1605.07H72.9053C53.5696 1605.07 35.0259 1597.38 21.3535 1583.71C7.68107 1570.04 0 1551.5 0 1532.16C0 1512.82 7.68107 1494.28 21.3535 1480.61C35.0259 1466.94 53.5696 1459.25 72.9053 1459.25Z" fill="#EA5E5E"/>
<path d="M1386.22 583.625H1969.85C1979.44 583.608 1988.95 585.486 1997.81 589.15C2006.68 592.814 2014.74 598.193 2021.53 604.978C2028.31 611.764 2033.69 619.821 2037.35 628.69C2041.02 637.558 2042.9 647.062 2042.88 656.658C2042.88 675.994 2035.2 694.537 2021.53 708.21C2007.85 721.882 1989.31 729.563 1969.97 729.563H1386.22C1366.89 729.563 1348.34 721.882 1334.67 708.21C1321 694.537 1313.32 675.994 1313.32 656.658C1313.3 647.073 1315.17 637.579 1318.83 628.719C1322.49 619.859 1327.85 611.807 1334.62 605.024C1341.4 598.24 1349.44 592.859 1358.29 589.187C1367.15 585.515 1376.64 583.625 1386.22 583.625Z" fill="#BF85BF"/>
<path d="M72.9054 583.625H1094.35C1113.68 583.625 1132.22 591.306 1145.9 604.978C1159.57 618.651 1167.25 637.195 1167.25 656.53C1167.25 675.866 1159.57 694.41 1145.9 708.082C1132.22 721.755 1113.68 729.436 1094.35 729.436H72.9054C53.5918 729.436 35.0674 721.772 21.3987 708.127C7.72996 694.482 0.0339359 675.971 0.000111813 656.658C-0.0166742 647.073 1.85671 637.579 5.51303 628.719C9.16934 619.859 14.5368 611.807 21.3084 605.024C28.08 598.24 36.1226 592.859 44.9763 589.187C53.8299 585.515 63.3206 583.625 72.9054 583.625Z" fill="#56B3B4"/>
<path d="M510.72 2042.88H1824.04C1833.61 2042.88 1843.09 2044.77 1851.94 2048.43C1860.78 2052.09 1868.82 2057.46 1875.59 2064.23C1882.36 2071 1887.73 2079.04 1891.39 2087.89C1895.06 2096.73 1896.94 2106.21 1896.94 2115.79C1896.94 2135.12 1889.26 2153.66 1875.59 2167.34C1861.92 2181.01 1843.37 2188.69 1824.04 2188.69H510.72C491.385 2188.69 472.841 2181.01 459.168 2167.34C445.496 2153.66 437.815 2135.12 437.815 2115.79C437.815 2106.21 439.701 2096.73 443.365 2087.89C447.028 2079.04 452.399 2071 459.168 2064.23C465.938 2057.46 473.975 2052.09 482.821 2048.43C491.666 2044.77 501.146 2042.88 510.72 2042.88Z" fill="#F7BA3E"/>
<path d="M72.9053 2042.88H218.844C228.418 2042.88 237.898 2044.77 246.743 2048.43C255.588 2052.09 263.625 2057.46 270.395 2064.23C277.165 2071 282.535 2079.04 286.199 2087.89C289.863 2096.73 291.749 2106.21 291.749 2115.79C291.749 2135.12 284.068 2153.66 270.395 2167.34C256.723 2181.01 238.179 2188.69 218.844 2188.69H72.9053C53.5696 2188.69 35.0259 2181.01 21.3535 2167.34C7.68107 2153.66 0 2135.12 0 2115.79C0 2106.21 1.88573 2096.73 5.54957 2087.89C9.2134 2079.04 14.5836 2071 21.3535 2064.23C28.1233 2057.46 36.1603 2052.09 45.0056 2048.43C53.8509 2044.77 63.3312 2042.88 72.9053 2042.88Z" fill="#BF85BF"/>
<path d="M1824.04 875.501H2553.6C2572.94 875.501 2591.48 883.182 2605.15 896.854C2618.82 910.527 2626.5 929.071 2626.5 948.406C2626.52 957.991 2624.65 967.485 2620.99 976.345C2617.34 985.205 2611.97 993.257 2605.2 1000.04C2598.43 1006.82 2590.38 1012.21 2581.53 1015.88C2572.68 1019.55 2563.18 1021.44 2553.6 1021.44H1824.04C1804.7 1021.44 1786.16 1013.76 1772.48 1000.09C1758.81 986.413 1751.13 967.87 1751.13 948.534C1751.11 938.949 1752.99 929.455 1756.64 920.595C1760.3 911.735 1765.67 903.683 1772.44 896.899C1779.21 890.116 1787.25 884.735 1796.11 881.063C1804.96 877.391 1814.45 875.501 1824.04 875.501Z" fill="#EA5E5E"/>
<path d="M1824.04 1167.38H2553.6C2572.94 1167.38 2591.48 1175.06 2605.15 1188.73C2618.82 1202.4 2626.5 1220.95 2626.5 1240.28C2626.5 1259.62 2618.82 1278.16 2605.15 1291.84C2591.48 1305.51 2572.94 1313.19 2553.6 1313.19H1824.04C1804.7 1313.19 1786.16 1305.51 1772.48 1291.84C1758.81 1278.16 1751.13 1259.62 1751.13 1240.28C1751.13 1220.95 1758.81 1202.4 1772.48 1188.73C1786.16 1175.06 1804.7 1167.38 1824.04 1167.38Z" fill="#F7BA3E"/>
<path d="M72.9053 0H1824.04C1843.37 0 1861.92 7.68107 1875.59 21.3535C1889.26 35.0259 1896.94 53.5696 1896.94 72.9053C1896.94 92.241 1889.26 110.785 1875.59 124.457C1861.92 138.13 1843.37 145.811 1824.04 145.811H72.9053C53.5696 145.811 35.0259 138.13 21.3535 124.457C7.68107 110.785 0 92.241 0 72.9053C0 53.5696 7.68107 35.0259 21.3535 21.3535C35.0259 7.68107 53.5696 0 72.9053 0Z" fill="#56B3B4"/>
<path opacity="0.5" d="M2115.79 0.000111813H2991.29C3000.87 -0.0166742 3010.37 1.85671 3019.23 5.51303C3028.09 9.16934 3036.14 14.5368 3042.92 21.3084C3049.7 28.08 3055.09 36.1226 3058.76 44.9763C3062.43 53.8299 3064.32 63.3206 3064.32 72.9054C3064.32 92.2411 3056.64 110.785 3042.97 124.457C3029.29 138.13 3010.75 145.811 2991.41 145.811H2115.79C2096.45 145.811 2077.91 138.13 2064.23 124.457C2050.56 110.785 2042.88 92.2411 2042.88 72.9054C2042.88 53.5697 2050.56 35.026 2064.23 21.3536C2077.91 7.68119 2096.45 0.000111813 2115.79 0.000111813Z" fill="#D0D4D8"/>
<path opacity="0.5" d="M2115.79 2042.88H2407.66C2417.24 2042.88 2426.72 2044.77 2435.56 2048.43C2444.41 2052.09 2452.44 2057.46 2459.21 2064.23C2465.98 2071 2471.35 2079.04 2475.02 2087.89C2478.68 2096.73 2480.57 2106.21 2480.57 2115.79C2480.57 2135.12 2472.89 2153.66 2459.21 2167.34C2445.54 2181.01 2427 2188.69 2407.66 2188.69H2115.79C2106.21 2188.69 2096.73 2186.8 2087.89 2183.14C2079.04 2179.48 2071 2174.11 2064.23 2167.34C2057.46 2160.57 2052.09 2152.53 2048.43 2143.68C2044.77 2134.84 2042.88 2125.36 2042.88 2115.79C2042.88 2106.21 2044.77 2096.73 2048.43 2087.89C2052.09 2079.04 2057.46 2071 2064.23 2064.23C2071 2057.46 2079.04 2052.09 2087.89 2048.43C2096.73 2044.77 2106.21 2042.88 2115.79 2042.88Z" fill="#D0D4D8"/>
<path opacity="0.5" d="M2699.54 2042.88H2991.42C3000.99 2042.88 3010.47 2044.77 3019.31 2048.43C3028.16 2052.09 3036.2 2057.46 3042.97 2064.23C3049.74 2071 3055.11 2079.04 3058.77 2087.89C3062.43 2096.73 3064.32 2106.21 3064.32 2115.79C3064.32 2125.36 3062.43 2134.84 3058.77 2143.68C3055.11 2152.53 3049.74 2160.57 3042.97 2167.34C3036.2 2174.11 3028.16 2179.48 3019.31 2183.14C3010.47 2186.8 3000.99 2188.69 2991.42 2188.69H2699.54C2680.2 2188.69 2661.66 2181.01 2647.99 2167.34C2634.31 2153.66 2626.63 2135.12 2626.63 2115.79C2626.63 2106.21 2628.52 2096.73 2632.18 2087.89C2635.85 2079.04 2641.22 2071 2647.99 2064.23C2654.76 2057.46 2662.79 2052.09 2671.64 2048.43C2680.48 2044.77 2689.96 2042.88 2699.54 2042.88Z" fill="#D0D4D8"/>
<path opacity="0.5" d="M2553.6 1751H2991.41C3010.75 1751 3029.29 1758.68 3042.97 1772.36C3056.64 1786.03 3064.32 1804.57 3064.32 1823.91C3064.32 1843.24 3056.64 1861.79 3042.97 1875.46C3029.29 1889.13 3010.75 1896.81 2991.41 1896.81H2553.6C2534.26 1896.81 2515.72 1889.13 2502.05 1875.46C2488.38 1861.79 2480.69 1843.24 2480.69 1823.91C2480.69 1804.57 2488.38 1786.03 2502.05 1772.36C2515.72 1758.68 2534.26 1751 2553.6 1751Z" fill="#D0D4D8"/>
<path opacity="0.5" d="M2553.6 291.876H2991.41C3010.75 291.876 3029.29 299.557 3042.97 313.229C3056.64 326.902 3064.32 345.446 3064.32 364.781C3064.32 384.117 3056.64 402.661 3042.97 416.333C3029.29 430.005 3010.75 437.687 2991.41 437.687H2553.6C2534.26 437.687 2515.72 430.005 2502.05 416.333C2488.38 402.661 2480.69 384.117 2480.69 364.781C2480.69 345.446 2488.38 326.902 2502.05 313.229C2515.72 299.557 2534.26 291.876 2553.6 291.876Z" fill="#D0D4D8"/>
<path opacity="0.5" d="M2699.54 1459.25H2991.41C3000.99 1459.25 3010.47 1461.14 3019.31 1464.8C3028.16 1468.47 3036.2 1473.84 3042.97 1480.61C3049.74 1487.38 3055.11 1495.42 3058.77 1504.26C3062.43 1513.11 3064.32 1522.59 3064.32 1532.16C3064.32 1541.73 3062.43 1551.21 3058.77 1560.06C3055.11 1568.91 3049.74 1576.94 3042.97 1583.71C3036.2 1590.48 3028.16 1595.85 3019.31 1599.52C3010.47 1603.18 3000.99 1605.07 2991.41 1605.07H2699.54C2689.95 1605.08 2680.46 1603.21 2671.6 1599.55C2662.74 1595.9 2654.69 1590.53 2647.9 1583.76C2641.12 1576.99 2635.74 1568.94 2632.07 1560.09C2628.4 1551.24 2626.5 1541.75 2626.5 1532.16C2626.5 1522.58 2628.4 1513.08 2632.07 1504.23C2635.74 1495.38 2641.12 1487.33 2647.9 1480.56C2654.69 1473.79 2662.74 1468.42 2671.6 1464.77C2680.46 1461.11 2689.95 1459.24 2699.54 1459.25Z" fill="#D0D4D8"/>
<path opacity="0.5" d="M2699.54 583.625H2991.42C3001 583.625 3010.49 585.515 3019.34 589.187C3028.2 592.859 3036.24 598.24 3043.01 605.024C3049.78 611.807 3055.15 619.859 3058.81 628.719C3062.46 637.579 3064.34 647.073 3064.32 656.658C3064.32 666.232 3062.43 675.712 3058.77 684.558C3055.11 693.403 3049.74 701.44 3042.97 708.21C3036.2 714.98 3028.16 720.35 3019.32 724.014C3010.47 727.677 3000.99 729.563 2991.42 729.563H2699.54C2680.2 729.563 2661.66 721.882 2647.99 708.21C2634.31 694.537 2626.63 675.994 2626.63 656.658C2626.62 647.073 2628.49 637.579 2632.15 628.719C2635.8 619.859 2641.17 611.807 2647.94 605.024C2654.71 598.24 2662.76 592.859 2671.61 589.187C2680.46 585.515 2689.95 583.625 2699.54 583.625Z" fill="#D0D4D8"/>
<path opacity="0.5" d="M2845.48 875.501H2991.41C3000.99 875.501 3010.47 877.387 3019.31 881.051C3028.16 884.714 3036.2 890.085 3042.97 896.854C3049.74 903.624 3055.11 911.661 3058.77 920.507C3062.43 929.352 3064.32 938.832 3064.32 948.406C3064.32 957.98 3062.43 967.461 3058.77 976.306C3055.11 985.151 3049.74 993.188 3042.97 999.958C3036.2 1006.73 3028.16 1012.1 3019.31 1015.76C3010.47 1019.43 3000.99 1021.31 2991.41 1021.31H2845.48C2826.14 1021.31 2807.6 1013.63 2793.92 999.958C2780.25 986.286 2772.57 967.742 2772.57 948.406C2772.57 929.071 2780.25 910.527 2793.92 896.854C2807.6 883.182 2826.14 875.501 2845.48 875.501Z" fill="#D0D4D8"/>
<path opacity="0.5" d="M2845.48 1167.38H2991.41C3000.99 1167.38 3010.47 1169.26 3019.31 1172.93C3028.16 1176.59 3036.2 1181.96 3042.97 1188.73C3049.74 1195.5 3055.11 1203.54 3058.77 1212.38C3062.43 1221.23 3064.32 1230.71 3064.32 1240.28C3064.32 1249.86 3062.43 1259.34 3058.77 1268.18C3055.11 1277.03 3049.74 1285.07 3042.97 1291.84C3036.2 1298.61 3028.16 1303.98 3019.31 1307.64C3010.47 1311.3 3000.99 1313.19 2991.41 1313.19H2845.48C2826.14 1313.19 2807.6 1305.51 2793.92 1291.84C2780.25 1278.16 2772.57 1259.62 2772.57 1240.28C2772.57 1220.95 2780.25 1202.4 2793.92 1188.73C2807.6 1175.06 2826.14 1167.38 2845.48 1167.38Z" fill="#D0D4D8"/>
<path opacity="0.5" d="M1678.1 2334.76H2991.42C3000.99 2334.76 3010.47 2336.64 3019.31 2340.31C3028.16 2343.97 3036.2 2349.34 3042.97 2356.11C3049.74 2362.88 3055.11 2370.92 3058.77 2379.76C3062.43 2388.61 3064.32 2398.09 3064.32 2407.66C3064.32 2417.24 3062.43 2426.72 3058.77 2435.56C3055.11 2444.41 3049.74 2452.44 3042.97 2459.21C3036.2 2465.98 3028.16 2471.35 3019.31 2475.02C3010.47 2478.68 3000.99 2480.57 2991.42 2480.57H1678.1C1658.76 2480.57 1640.22 2472.89 1626.55 2459.21C1612.87 2445.54 1605.19 2427 1605.19 2407.66C1605.19 2388.33 1612.87 2369.78 1626.55 2356.11C1640.22 2342.44 1658.76 2334.76 1678.1 2334.76Z" fill="#D0D4D8"/>
<path opacity="0.5" d="M1094.35 2334.76H1386.22C1405.56 2334.76 1424.1 2342.44 1437.77 2356.11C1451.45 2369.78 1459.13 2388.33 1459.13 2407.66C1459.13 2427 1451.45 2445.54 1437.77 2459.21C1424.1 2472.89 1405.56 2480.57 1386.22 2480.57H1094.35C1075.01 2480.57 1056.47 2472.89 1042.79 2459.21C1029.12 2445.54 1021.44 2427 1021.44 2407.66C1021.44 2388.33 1029.12 2369.78 1042.79 2356.11C1056.47 2342.44 1075.01 2334.76 1094.35 2334.76Z" fill="#D0D4D8"/>
<path opacity="0.5" d="M2261.72 2918.38H2991.29C3010.62 2918.38 3029.17 2926.06 3042.84 2939.73C3056.51 2953.41 3064.19 2971.95 3064.19 2991.29C3064.19 3000.86 3062.31 3010.34 3058.64 3019.19C3054.98 3028.03 3049.61 3036.07 3042.84 3042.84C3036.07 3049.61 3028.03 3054.98 3019.19 3058.64C3010.34 3062.31 3000.86 3064.19 2991.29 3064.19H2261.72C2252.15 3064.19 2242.67 3062.31 2233.82 3058.64C2224.98 3054.98 2216.94 3049.61 2210.17 3042.84C2203.4 3036.07 2198.03 3028.03 2194.37 3019.19C2190.7 3010.34 2188.82 3000.86 2188.82 2991.29C2188.82 2971.95 2196.5 2953.41 2210.17 2939.73C2223.84 2926.06 2242.39 2918.38 2261.72 2918.38Z" fill="#D0D4D8"/>
<path opacity="0.5" d="M1094.35 2918.38H1969.85C1989.18 2918.38 2007.73 2926.06 2021.4 2939.73C2035.07 2953.41 2042.75 2971.95 2042.75 2991.29C2042.75 3000.86 2040.87 3010.34 2037.2 3019.19C2033.54 3028.03 2028.17 3036.07 2021.4 3042.84C2014.63 3049.61 2006.59 3054.98 1997.75 3058.64C1988.9 3062.31 1979.42 3064.19 1969.85 3064.19H1094.35C1075.03 3064.19 1056.51 3056.53 1042.84 3042.88C1029.17 3029.24 1021.47 3010.73 1021.44 2991.41C1021.42 2981.83 1023.3 2972.33 1026.95 2963.47C1030.61 2954.61 1035.98 2946.56 1042.75 2939.78C1049.52 2933 1057.56 2927.61 1066.42 2923.94C1075.27 2920.27 1084.76 2918.38 1094.35 2918.38Z" fill="#D0D4D8"/>
<path opacity="0.5" d="M1094.35 875.501H1532.16C1551.5 875.501 1570.04 883.182 1583.71 896.854C1597.38 910.527 1605.07 929.071 1605.07 948.406C1605.08 957.991 1603.21 967.485 1599.55 976.345C1595.9 985.205 1590.53 993.257 1583.76 1000.04C1576.99 1006.82 1568.94 1012.21 1560.09 1015.88C1551.24 1019.55 1541.74 1021.44 1532.16 1021.44H1094.35C1075.01 1021.44 1056.47 1013.76 1042.79 1000.09C1029.12 986.413 1021.44 967.87 1021.44 948.534C1021.42 938.949 1023.3 929.455 1026.95 920.595C1030.61 911.735 1035.98 903.683 1042.75 896.899C1049.52 890.116 1057.56 884.735 1066.42 881.063C1075.27 877.391 1084.76 875.501 1094.35 875.501Z" fill="#D0D4D8"/>
<path opacity="0.5" d="M1094.35 1167.38H1532.16C1551.5 1167.38 1570.04 1175.06 1583.71 1188.73C1597.38 1202.4 1605.07 1220.95 1605.07 1240.28C1605.07 1259.62 1597.38 1278.16 1583.71 1291.84C1570.04 1305.51 1551.5 1313.19 1532.16 1313.19H1094.35C1075.01 1313.19 1056.47 1305.51 1042.79 1291.84C1029.12 1278.16 1021.44 1259.62 1021.44 1240.28C1021.44 1220.95 1029.12 1202.4 1042.79 1188.73C1056.47 1175.06 1075.01 1167.38 1094.35 1167.38Z" fill="#D0D4D8"/>
</svg>
