<svg width="3065" height="3065" viewBox="0 0 3065 3065" fill="none" xmlns="http://www.w3.org/2000/svg">
<path d="M2920.73 0H143.585C64.2853 0 0 64.2853 0 143.585V2920.73C0 3000.03 64.2853 3064.32 143.585 3064.32H2920.73C3000.03 3064.32 3064.32 3000.03 3064.32 2920.73V143.585C3064.32 64.2853 3000.03 0 2920.73 0Z" fill="#3178C6"/>
<path fill-rule="evenodd" clip-rule="evenodd" d="M1777.85 2381.31V2717.07C1838.86 2747.18 1903.87 2768.37 1970.91 2780C2048.37 2794.3 2126.99 2801.33 2205.76 2801.01C2282.53 2801.37 2359.13 2793.63 2434.27 2777.92C2501.74 2764.28 2566.11 2738.31 2624.15 2701.31C2678.03 2666.53 2722.44 2618.92 2753.4 2562.76C2808.85 2446.46 2816.16 2312.98 2773.76 2191.32C2755.86 2145.82 2729.2 2104.29 2695.29 2069.07C2658.89 2031.63 2617.54 1999.34 2572.39 1973.09C2520.41 1942.65 2466.4 1915.81 2410.74 1892.77C2366.97 1874.6 2327.57 1856.94 2292.55 1839.8C2261.44 1824.9 2231.68 1807.37 2203.57 1787.37C2181.56 1771.95 2162.45 1752.75 2147.1 1730.68C2133.85 1710.65 2126.94 1687.08 2127.3 1663.05C2127 1640.94 2133.16 1619.22 2145.02 1600.56C2157.91 1581.03 2175.09 1564.71 2195.26 1552.84C2219.91 1538.33 2246.74 1527.87 2274.71 1521.87C2309.05 1514.24 2344.16 1510.57 2379.34 1510.93C2408.92 1511.03 2438.47 1513.15 2467.76 1517.28C2499.4 1521.55 2530.7 1528.03 2561.44 1536.65C2592.71 1545.31 2623.29 1556.29 2652.94 1569.48C2681.7 1582.3 2709.21 1597.76 2735.13 1615.66V1302.34C2681.18 1281.93 2625.24 1267.26 2568.23 1258.56C2499.38 1248.54 2429.86 1243.82 2360.29 1244.44C2284.24 1244.03 2208.42 1252.67 2134.41 1270.16C2067.51 1285.45 2003.9 1312.62 1946.61 1350.38C1893.39 1385.84 1849.44 1433.54 1818.46 1489.48C1785.62 1551.6 1769.37 1621.15 1771.29 1691.4C1768.86 1784.29 1799.46 1875.03 1857.64 1947.49C1929.01 2027.82 2019.01 2089.42 2119.74 2126.86C2165.71 2145.83 2208.57 2164.4 2248.34 2182.56C2284.21 2198.53 2318.7 2217.45 2351.43 2239.14C2377.83 2256.32 2401.02 2277.99 2419.94 2303.17C2436.57 2326 2445.4 2353.6 2445.11 2381.85C2445.26 2403.03 2439.82 2423.86 2429.35 2442.26C2417.71 2462.04 2401.36 2478.62 2381.74 2490.53C2357.2 2505.49 2330.36 2516.29 2302.29 2522.48C2265.73 2530.66 2228.34 2534.51 2190.88 2533.97C2117.37 2533.84 2044.45 2520.88 1975.39 2495.67C1903.25 2469.64 1836.35 2430.91 1777.85 2381.31ZM1213.8 1545.4H1651.56V1268.85H430.975V1545.4H866.765V2777.04H1213.8V1545.4Z" fill="white"/>
</svg>
